<svg xmlns="http://www.w3.org/2000/svg">
  <defs>
    <symbol id="icon-externe-link-inline" viewBox="0 0 24 24">
      <g fill="none" stroke="currentColor" stroke-width="2" stroke-linecap="round"
        stroke-linejoin="round">
        <path d="M12 6h-6a2 2 0 0 0 -2 2v10a2 2 0 0 0 2 2h10a2 2 0 0 0 2 -2v-6" />
        <path d="M11 13l9 -9" />
        <path d="M15 4h5v5" />
      </g>
    </symbol>
    <symbol id="icon-plus-cirkel-inline" viewBox="0 0 24 24">
      <g fill="none" stroke="currentColor" stroke-width="2" stroke-linecap="round"
        stroke-linejoin="round">
        <path d="M3 12a9 9 0 1 0 18 0a9 9 0 0 0 -18 0" />
        <path d="M9 12h6" />
        <path d="M12 9v6" />
      </g>
    </symbol>
    <symbol id="icon-kruis-inline" viewBox="0 0 24 24">
      <g fill="none" stroke="currentColor" stroke-width="2" stroke-linecap="round"
        stroke-linejoin="round">
        <path d="M18 6l-12 12" />
        <path d="M6 6l12 12" />
      </g>
    </symbol>
    <symbol id="icon-delta-naar-rechts-inline" viewBox="0 -1 20 20">
      <path fill="none" stroke="currentColor" stroke-width="2" stroke-linecap="round"
        stroke-linejoin="round" d="M9 6l6 6l-6 6" />
    </symbol>
    <symbol id="icon-active" viewBox="0 -1 22 22">
      <path fill="none" stroke="currentColor" stroke-width="2" stroke-linecap="round"
        stroke-linejoin="round" d="M5 12l5 5l10 -10" />
    </symbol>
    <symbol id="icon-deprecated" viewBox="0 0 24 24">
      <g fill="none" stroke="currentColor" stroke-width="2" stroke-linecap="round"
        stroke-linejoin="round">
        <path d="M4 20l16 0" />
        <path d="M9.4 10l5.2 0" />
        <path d="M7.8 15l8.4 0" />
        <path d="M6 20l5 -15h2l5 15" />
      </g>
    </symbol>
    <symbol id="icon-retired" viewBox="0 0 24 24">
      <g fill="none" stroke="currentColor" stroke-width="2" stroke-linecap="round"
        stroke-linejoin="round">
        <path d="M4 7l16 0" />
        <path d="M10 11l0 6" />
        <path d="M14 11l0 6" />
        <path d="M5 7l1 12a2 2 0 0 0 2 2h8a2 2 0 0 0 2 -2l1 -12" />
        <path d="M9 7v-3a1 1 0 0 1 1 -1h4a1 1 0 0 1 1 1v3" />
      </g>
    </symbol>
    <symbol id="icon-sunset" viewBox="0 0 24 24">
      <g fill="none" stroke="currentColor" stroke-width="2" stroke-linecap="round"
        stroke-linejoin="round">
        <path d="M3 13h1" />
        <path d="M20 13h1" />
        <path d="M5.6 6.6l.7 .7" />
        <path d="M18.4 6.6l-.7 .7" />
        <path d="M8 13a4 4 0 1 1 8 0" />
        <path d="M3 17h18" />
        <path d="M7 20h5" />
        <path d="M16 20h1" />
        <path d="M12 5v-1" />
      </g>
    </symbol>
    <symbol id="icon-kopieer-inline" viewBox="0 0 24 24">
      <g fill="none" stroke="currentColor" stroke-width="2" stroke-linecap="round"
        stroke-linejoin="round">
        <!-- <path stroke="none" d="M0 0h24v24H0z" fill="none" /> -->
        <path d="M15 3v4a1 1 0 0 0 1 1h4" />
        <path d="M18 17h-7a2 2 0 0 1 -2 -2v-10a2 2 0 0 1 2 -2h4l5 5v7a2 2 0 0 1 -2 2" />
        <path d="M16 17v2a2 2 0 0 1 -2 2h-7a2 2 0 0 1 -2 -2v-10a2 2 0 0 1 2 -2h2" />
      </g>
    </symbol>
    <symbol id="icon-zoek-inline" viewBox="0 0 24 24">
      <g fill="none" stroke="currentColor" stroke-width="2" stroke-linecap="round"
        stroke-linejoin="round">
        <!-- <path stroke="none" d="M0 0h24v24H0z" fill="none" /> -->
        <path d="M3 10a7 7 0 1 0 14 0a7 7 0 1 0 -14 0" />
        <path d="M21 21l-6 -6" />
      </g>
    </symbol>
  </defs>
</svg>