<svg xmlns="http://www.w3.org/2000/svg">
  <defs>
    <symbol id="icon-externe-link-inline" viewBox="0 0 24 24">
      <path fill="currentColor" d="m16,20H4V8h6v-3H2.09c-.6,0-1.08.49-1.08,1.09v15.83c0,.6.49,1.08,1.08,1.08h15.83c.6,0,1.09-.49,1.09-1.08v-7.92h-3v6ZM21.58,2.42c-.26-.26-.62-.39-.98-.34l-8.36.93c-.61.07-1.07.59-1.07,1.21,0,.62.48,1.13,1.1,1.18l3.66.32-4.73,4.73c-.77.77-.44,1.55.18,2.18.63.63,1.41.95,2.18.18l4.73-4.73.32,3.66c.05.62.56,1.09,1.18,1.1,0,0,.01,0,.02,0,.61,0,1.12-.46,1.19-1.07l.93-8.36c.04-.36-.09-.72-.34-.98" />
    </symbol>
    <symbol id="icon-plus-cirkel-inline" viewBox="0 0 24 24">
      <path fill="currentColor" d="M12 0C18.6274 0 24 5.37258 24 12C24 18.6274 18.6274 24 12 24C5.37258 24 0 18.6274 0 12C0 5.37258 5.37258 0 12 0ZM11.9902 3.00977C10.9303 3.00977 9.99028 3.32999 9.99023 4.41992V10H4.40039C3.31039 10 2.99024 10.94 2.99023 12C2.99023 13.06 3.31039 14 4.40039 14H9.99023V19.5898C9.99023 20.6798 10.9302 21 11.9902 21C13.0501 21 13.9902 20.6798 13.9902 19.5898V14H19.5801C20.67 13.9999 20.9902 13.06 20.9902 12C20.9902 10.94 20.67 10.0001 19.5801 10H13.9902V4.41992C13.9902 3.33008 13.0501 3.00981 11.9902 3.00977Z" />
    </symbol>
    <symbol id="icon-kruis-inline" viewBox="0 0 24 24">
      <path fill="currentColor" d="m17.69,4.21l-5.68,5.03-5.68-5.03c-.6-.53-1.5-.52-2.08.03-.55.58-.56,1.48-.03,2.08l5.03,5.68-5.03,5.68c-.53.6-.52,1.5.03,2.08.58.55,1.48.56,2.08.03l5.68-5.03,5.68,5.03c.6.53,1.5.51,2.08-.03.55-.58.56-1.48.03-2.08l-5.03-5.68,5.03-5.68c.53-.6.52-1.5-.03-2.08-.58-.55-1.48-.56-2.08-.03m-5.68,7.8h0s0-.01,0-.01h0s0-.01,0-.01h0s0,.01,0,.01h0s0,.01,0,.01Z"/>
    </symbol>
    <symbol id="icon-delta-naar-rechts-inline" viewBox="0 0 24 24">
      <path fill="currentColor" d="M5.66 23.05c-1.01-1.01-1.35-2.3-.34-3.31l7.75-7.75-7.75-7.75c-1.01-1.01-.66-2.3.34-3.3 1.01-1 2.3-1.34 3.3-.33l9.57 9.57a2.577 2.577 0 0 1 0 3.65L8.96 23.4c-1.01 1.01-2.3.66-3.3-.34" />
    </symbol>
    <symbol id="icon-active" viewBox="0 -2 24 24">
      <path fill="currentColor" d="m20.63,3.08c-.56-.42-1.35-.34-1.82.19l-7.94,8.88-4.77-4.14c-.51-.44-1.25-.44-1.76-.01-.51.43-.63,1.16-.29,1.73l5.78,9.65c.24.41.68.66,1.16.66h0c.47,0,.91-.25,1.16-.65l8.83-14.52c.36-.6.21-1.38-.35-1.79"/>
    </symbol>
    <symbol id="icon-deprecated" viewBox="0 -2 64 64">
      <path fill="currentColor" d="M51.99,54.24c-.75-.75-8.23-1.09-13.93-1.24,0-.08,.03-.23,.29-.32,.86-.33,5.54-.91,7.68-1.03L36.82,5.61c-.19-.94-1.01-1.61-1.96-1.61h-5.72c-.95,0-1.77,.67-1.96,1.61l-9.55,47.75c-3.03,.21-5.24,.51-5.62,.88-.5,.5-.91,1.52-.91,2.76,0,1.66,.67,3,1.5,3H51.4c.83,0,1.5-1.34,1.5-3,0-1.24-.41-2.26-.91-2.76M29.38,15h5.24l1.8,9h-8.84l1.8-9Zm-3.8,19h12.84l1.82,9.12H23.76l1.82-9.12Z"/>
    </symbol>
    <symbol id="icon-retired" viewBox="0 -2 64 64">
      <polygon fill="currentColor" points="10.67 18.67 10.67 18.67 10.67 18.67 10.67 18.67"/>
      <path fill="currentColor" d="m50.67,10.67h-8v-2.67c0-1.47-1.19-2.67-2.67-2.67h-16c-1.47,0-2.67,1.19-2.67,2.67v2.67h-8c-1.47,0-2.67,1.19-2.67,2.67v5.33h14.28s.15.32-.31.44c-.58.16-11.31,1.43-11.31,1.43v35.46c0,1.47,1.19,2.67,2.67,2.67h32c1.47,0,2.67-1.19,2.67-2.67V18.67h2.67v-5.33c0-1.47-1.19-2.67-2.67-2.67Zm-26.67,40l-5.33,2.67v-29.33h5.33v26.67Zm10.67,0l-5.33,2.67v-29.33h5.33v26.67Zm10.67,0l-5.33,2.67v-29.33h5.33v26.67ZM24.43,10.63v-.8c0-.94-.16-1.7.88-1.7h13.27c1.04,0,.88.76.88,1.7v.8h-15.03Z"/>
    </symbol>
    <symbol id="icon-sunset" viewBox="0 0 64 64">
      <path fill="currentColor" d="M19.592,40.774c-0.033,-0.134 -0.075,-0.264 -0.124,-0.389c-1.174,-2.94 -8.939,-4.431 -11.888,-5.04c-0.386,-0.079 -0.393,-0.65 -0.009,-0.737c3.022,-0.686 10.989,-2.296 11.897,-4.993c0.945,-2.812 -2.06,-8.36 -3.606,-10.933c-0.201,-0.335 0.155,-0.731 0.481,-0.533c2.619,1.589 8.329,4.793 10.375,3.849c2.064,-0.952 3.98,-10.422 4.759,-13.426c0.099,-0.379 0.607,-0.372 0.697,0.009c0.69,2.967 2.431,12.288 4.8,13.417c2.324,1.11 7.747,-2.079 10.317,-3.745c0.323,-0.21 0.697,0.181 0.497,0.52c-1.573,2.659 -4.56,8.252 -3.564,10.842c0.996,2.588 9.291,4.313 12.209,5.021c0.37,0.091 0.375,0.643 0.005,0.736c-2.788,0.695 -10.722,2.373 -12.214,5.013c-0.073,0.13 -0.134,0.268 -0.184,0.413c-1.365,-0.002 -2.9,-0.699 -3.908,-1.279c0.683,-1.361 1.07,-2.911 1.07,-4.557c0,-5.398 -4.167,-9.777 -9.308,-9.777c-5.142,0 -9.311,4.379 -9.311,9.777c0,1.699 0.412,3.296 1.138,4.688c-0.998,0.545 -2.415,1.148 -3.678,1.148c-0.149,-0 -0.299,-0.009 -0.451,-0.024Zm5.405,13.636c-1.328,0.655 -3.102,1.299 -4.954,1.299c-2.397,-0 -4.663,-1.077 -6,-1.864c-1.337,0.787 -3.603,1.864 -6,1.864c-1.064,-0 -2.1,-0.215 -3.043,-0.519l0,-4.219c0.918,0.438 2.024,0.828 3.043,0.828c1.905,-0 4.16,-1.371 4.8,-1.85l1.2,-0.9l1.2,0.9c0.69,0.512 2.909,1.85 4.8,1.85c1.146,-0 2.419,-0.497 3.391,-0.997c0.498,1.193 1.023,2.412 1.563,3.608Zm15.399,-3.742c1.001,0.545 2.396,1.131 3.647,1.131c1.905,-0 4.16,-1.371 4.8,-1.85l1.2,-0.9l1.2,0.9c0.69,0.512 2.909,1.85 4.8,1.85c0.984,-0 2.057,-0.367 2.957,-0.786l0,4.203c-0.92,0.29 -1.925,0.493 -2.957,0.493c-2.397,-0 -4.663,-1.077 -6,-1.864c-1.337,0.787 -3.603,1.864 -6,1.864c-1.95,-0 -3.813,-0.713 -5.16,-1.403c0.524,-1.208 1.033,-2.437 1.513,-3.638Zm10.847,-9.719c0.69,0.512 2.909,1.85 4.8,1.85c0.984,-0 2.057,-0.367 2.957,-0.786l0,4.203c-0.92,0.29 -1.925,0.493 -2.957,0.493c-2.397,-0 -4.663,-1.077 -6,-1.864c-1.337,0.787 -3.603,1.864 -6,1.864c-2.397,-0 -4.663,-1.077 -6,-1.864c-1.337,0.787 -3.603,1.864 -6,1.864c-2.397,-0 -4.663,-1.077 -6,-1.864c-1.337,0.787 -3.603,1.864 -6,1.864c-2.397,-0 -4.663,-1.077 -6,-1.864c-1.337,0.787 -3.603,1.864 -6,1.864c-1.064,-0 -2.1,-0.215 -3.043,-0.519l0,-4.219c0.918,0.438 2.024,0.828 3.043,0.828c1.905,-0 4.16,-1.371 4.8,-1.85l1.2,-0.9l1.2,0.9c0.69,0.512 2.909,1.85 4.8,1.85c1.905,-0 4.16,-1.371 4.8,-1.85l1.2,-0.9l1.2,0.9c0.69,0.512 2.909,1.85 4.8,1.85c1.905,-0 4.16,-1.371 4.8,-1.85l1.2,-0.9l1.2,0.9c0.69,0.512 2.909,1.85 4.8,1.85c1.905,-0 4.16,-1.371 4.8,-1.85l1.2,-0.9l1.2,0.9Z" />
    </symbol>
  </defs>
</svg>