<svg xmlns="http://www.w3.org/2000/svg">
  <defs>
    <symbol id="icon-externe-link-inline" viewBox="0 0 24 24">
      <path fill="currentColor" d="m16,20H4V8h6v-3H2.09c-.6,0-1.08.49-1.08,1.09v15.83c0,.6.49,1.08,1.08,1.08h15.83c.6,0,1.09-.49,1.09-1.08v-7.92h-3v6ZM21.58,2.42c-.26-.26-.62-.39-.98-.34l-8.36.93c-.61.07-1.07.59-1.07,1.21,0,.62.48,1.13,1.1,1.18l3.66.32-4.73,4.73c-.77.77-.44,1.55.18,2.18.63.63,1.41.95,2.18.18l4.73-4.73.32,3.66c.05.62.56,1.09,1.18,1.1,0,0,.01,0,.02,0,.61,0,1.12-.46,1.19-1.07l.93-8.36c.04-.36-.09-.72-.34-.98" />
    </symbol>
    <symbol id="icon-plus-cirkel-inline" viewBox="0 0 24 24">
      <path fill="currentColor" d="M12 0C18.6274 0 24 5.37258 24 12C24 18.6274 18.6274 24 12 24C5.37258 24 0 18.6274 0 12C0 5.37258 5.37258 0 12 0ZM11.9902 3.00977C10.9303 3.00977 9.99028 3.32999 9.99023 4.41992V10H4.40039C3.31039 10 2.99024 10.94 2.99023 12C2.99023 13.06 3.31039 14 4.40039 14H9.99023V19.5898C9.99023 20.6798 10.9302 21 11.9902 21C13.0501 21 13.9902 20.6798 13.9902 19.5898V14H19.5801C20.67 13.9999 20.9902 13.06 20.9902 12C20.9902 10.94 20.67 10.0001 19.5801 10H13.9902V4.41992C13.9902 3.33008 13.0501 3.00981 11.9902 3.00977Z" />
    </symbol>
  </defs>
</svg>